<?xml version="1.0" encoding="iso-8859-1"?>
<!-- Generator: Adobe Illustrator 19.1.0, SVG Export Plug-In . SVG Version: 6.00 Build 0)  -->
<svg version="1.0" id="gear" xmlns="http://www.w3.org/2000/svg" viewBox="0 0 170.000000 173.000000"
 preserveAspectRatio="xMidYMid meet">
<g transform="translate(0.000000,173.000000) scale(0.100000,-0.100000)" stroke="none">
	<path d="M687 1104 c-24 -13 -28 -20 -22 -41 8 -35 -19 -63 -61 -63 -31 0 -54
	-20 -54 -48 0 -5 34 -23 76 -40 l76 -31 33 34 c26 29 40 35 72 35 67 0 114
	-62 93 -126 -14 -41 -48 -64 -96 -64 -29 0 -44 7 -69 35 l-33 34 -76 -31 c-42
	-17 -76 -35 -76 -40 0 -28 23 -48 54 -48 40 0 66 -26 66 -67 0 -22 6 -33 25
	-41 36 -17 49 -15 70 8 23 26 67 26 90 0 21 -23 34 -25 70 -8 20 9 25 18 25
	48 0 46 21 65 65 62 29 -3 34 0 48 35 15 37 14 39 -9 64 -13 14 -24 34 -24 44
	0 10 11 30 24 44 23 25 24 27 9 64 -14 33 -19 37 -52 37 -47 0 -61 14 -61 60
	0 30 -5 39 -25 48 -37 17 -58 15 -73 -8 -7 -12 -23 -20 -41 -20 -15 0 -36 9
	-46 20 -21 24 -40 25 -78 4z"/>
</g>
</svg>