<?xml version="1.0" encoding="iso-8859-1"?>
<!-- Generator: Adobe Illustrator 19.1.0, SVG Export Plug-In . SVG Version: 6.00 Build 0)  -->
<svg version="1.0" xmlns="http://www.w3.org/2000/svg" id="gearBorder" viewBox="0 0 170.000000 173.000000"
 preserveAspectRatio="xMidYMid meet">

<g transform="translate(0.000000,173.000000) scale(0.100000,-0.100000)" stroke="none">
	<path d="M979 1535 l-65 -66 -37 16 c-43 18 -68 19 -122 4 -33 -9 -85 -55
	-293 -263 -140 -138 -262 -268 -273 -288 -22 -42 -25 -106 -7 -155 12 -33 11
	-34 -50 -96 l-62 -63 45 -44 45 -44 63 62 63 62 59 -60 59 -60 -62 -63 -62
	-63 45 -44 45 -44 63 62 63 62 59 -60 59 -60 -62 -63 -62 -63 48 -47 48 -47
	63 64 63 63 36 -13 c49 -18 85 -17 130 1 42 18 533 500 559 550 19 35 21 122
	3 154 -11 22 -7 28 49 85 34 34 61 66 61 72 0 12 -72 84 -85 84 -5 0 -37 -27
	-70 -60 l-61 -60 -59 60 -59 60 64 65 64 65 -44 45 -44 45 -66 -65 -66 -65
	-59 60 -59 60 64 65 65 65 -45 45 -45 45 -66 -65z m108 -408 c158 -158 253
	-260 253 -272 0 -12 -95 -114 -253 -272 -193 -193 -258 -253 -277 -253 -19 0
	-83 59 -272 248 -214 213 -248 252 -248 277 0 26 34 64 248 278 188 187 254
	247 272 247 19 0 86 -61 277 -253z"/>
</g>
</svg>