<?xml version="1.0" encoding="iso-8859-1"?>
<!-- Generator: Adobe Illustrator 19.1.0, SVG Export Plug-In . SVG Version: 6.00 Build 0)  -->
<svg version="1.0" xmlns="http://www.w3.org/2000/svg" id="itschoolSquere" viewBox="0 0 211.000000 161.000000"
 preserveAspectRatio="xMidYMid meet">
<g transform="translate(0.000000,161.000000) scale(0.100000,-0.100000)">
	<path d="M1530 1540 l0 -70 70 0 70 0 0 70 0 70 -70 0 -70 0 0 -70z"/>
	<path d="M1930 1410 l0 -90 90 0 90 0 0 90 0 90 -90 0 -90 0 0 -90z"/>
	<path d="M1350 1295 l0 -65 65 0 65 0 0 65 0 65 -65 0 -65 0 0 -65z"/>
	<path d="M1650 1270 l0 -90 90 0 90 0 0 90 0 90 -90 0 -90 0 0 -90z"/>
	<path d="M1910 1050 l0 -70 70 0 70 0 0 70 0 70 -70 0 -70 0 0 -70z"/>
	<path d="M1500 1010 l0 -90 90 0 90 0 0 90 0 90 -90 0 -90 0 0 -90z"/>
</g>
</svg>