<?xml version="1.0" encoding="iso-8859-1"?>
<!-- Generator: Adobe Illustrator 19.1.0, SVG Export Plug-In . SVG Version: 6.00 Build 0)  -->
<svg version="1.0" xmlns="http://www.w3.org/2000/svg" id="itschoolComp" viewBox="0 0 211.000000 161.000000"
 preserveAspectRatio="xMidYMid meet">
<g transform="translate(0.000000,161.000000) scale(0.100000,-0.100000)">
	<path d="M51 1344 c-49 -35 -51 -51 -51 -522 l0 -439 23 -34 c39 -58 43 -59
	375 -59 l302 0 0 -145 0 -145 155 0 155 0 0 145 0 145 300 0 c332 0 356 4 384
	59 13 24 16 68 16 225 l0 194 -32 28 -33 27 -5 -224 c-3 -123 -7 -225 -8 -226
	-1 -2 -348 -3 -772 -3 -750 0 -770 0 -780 19 -14 27 -14 855 0 882 10 18 28
	19 595 19 l584 0 -14 33 -13 32 -579 3 c-522 2 -581 1 -602 -14z"/>
</g>
</svg>