<svg id="manual" enable-background="new 0 0 512 512" viewBox="0 0 512 512"
	xmlns="http://www.w3.org/2000/svg">
	<g>
		<g fill="#fff">
			<path
				d="m303.402 161.045v-101.017c0-4.143-3.357-7.5-7.5-7.5h-202.033c-4.142 0-7.5 3.357-7.5 7.5v101.017c0 4.143 3.358 7.5 7.5 7.5h202.032c4.143 0 7.501-3.357 7.501-7.5zm-15-7.5h-187.033v-86.017h187.032v86.017z" />
			<path fill="#FF4081"
				d="m154.479 331.333h-60.61c-4.142 0-7.5 3.357-7.5 7.5s3.358 7.5 7.5 7.5h60.609c4.142 0 7.5-3.357 7.5-7.5s-3.357-7.5-7.499-7.5z" />
			<path fill="#FF4081"
				d="m154.479 363.658h-60.61c-4.142 0-7.5 3.357-7.5 7.5s3.358 7.5 7.5 7.5h60.609c4.142 0 7.5-3.357 7.5-7.5s-3.357-7.5-7.499-7.5z" />
			<path
				d="m395.91 151.52c-12.931 0-25.361 2.177-36.95 6.176v-83.646c0-4.143-3.357-7.5-7.5-7.5s-7.5 3.357-7.5 7.5v90.067c-36.565 18.889-61.62 57.059-61.62 100.973 0 20.381 5.425 40.243 15.722 57.679l-15.337 46.021c-.898 2.694-.196 5.666 1.812 7.675 1.43 1.429 3.347 2.196 5.305 2.196.793 0 1.594-.126 2.37-.385l46.021-15.337c1.88 1.11 3.794 2.153 5.729 3.149v33.932h-120.462c-4.142 0-7.5 3.357-7.5 7.5s3.358 7.5 7.5 7.5h120.46v17.33h-285.447c-13.047 0-23.663 10.615-23.663 23.662 0 13.048 10.615 23.663 23.663 23.663h285.447v17.325h-285.45c-22.597 0-40.98-18.388-40.98-40.99s18.383-40.99 40.98-40.99h129.99c4.142 0 7.5-3.357 7.5-7.5s-3.358-7.5-7.5-7.5h-129.99c-16.17 0-30.751 6.9-40.98 17.902v-361.932c0-22.602 18.384-40.99 40.98-40.99h285.45v24.05c0 4.143 3.357 7.5 7.5 7.5s7.5-3.357 7.5-7.5v-31.55c0-4.143-3.357-7.5-7.5-7.5h-292.95c-30.868 0-55.98 25.117-55.98 55.99v400.02c0 30.873 25.112 55.99 55.98 55.99h292.95c4.143 0 7.5-3.357 7.5-7.5v-132c11.811 4.06 24.28 6.16 36.95 6.16 30.007 0 58.299-11.595 79.664-32.648 2.95-2.907 2.984-7.655.077-10.606-2.908-2.951-7.657-2.986-10.606-.077-18.54 18.271-43.093 28.332-69.135 28.332-18.74 0-36.972-5.281-52.723-15.273-1.905-1.209-4.25-1.495-6.389-.782l-35.102 11.698 11.698-35.102c.713-2.139.426-4.484-.782-6.389-9.992-15.751-15.273-33.982-15.273-52.723 0-54.352 44.219-98.57 98.57-98.57 54.346 0 98.56 44.219 98.56 98.57 0 15.478-3.481 30.282-10.347 44.005-1.854 3.704-.354 8.209 3.351 10.062 3.707 1.854 8.211.354 10.063-3.352 7.918-15.824 11.933-32.888 11.933-50.716.001-62.622-50.941-113.569-113.559-113.569zm-337.397 313.155c-4.776 0-8.663-3.887-8.663-8.663s3.886-8.662 8.663-8.662h285.447v17.325z" />
			<path fill="#FF4081"
				d="m395.907 183.85c-13.047 0-23.662 10.615-23.662 23.662 0 13.048 10.615 23.663 23.662 23.663 13.048 0 23.663-10.615 23.663-23.663.001-13.047-10.615-23.662-23.663-23.662zm0 32.325c-4.776 0-8.662-3.887-8.662-8.663s3.886-8.662 8.662-8.662 8.663 3.886 8.663 8.662-3.886 8.663-8.663 8.663z" />
			<path fill="#FF4081"
				d="m395.907 248.5c-13.047 0-23.662 10.615-23.662 23.662v50.509c0 13.047 10.615 23.662 23.662 23.662 13.048 0 23.663-10.615 23.663-23.662v-50.509c.001-13.047-10.615-23.662-23.663-23.662zm8.664 74.171c0 4.776-3.887 8.662-8.663 8.662s-8.662-3.886-8.662-8.662v-50.509c0-4.776 3.886-8.662 8.662-8.662s8.663 3.886 8.663 8.662z" />
		</g>
	</g>
</svg>