<svg width="80" height="81" viewBox="0 0 80 81" id="onlineCoursesPink" fill="none" xmlns="http://www.w3.org/2000/svg">
<path d="M39.322 16.8892H27.1186C26.3698 16.8892 25.7627 17.4963 25.7627 18.2451C25.7627 18.9939 26.3698 19.601 27.1186 19.601H39.322C40.0708 19.601 40.678 18.9939 40.678 18.2451C40.678 17.4963 40.0708 16.8892 39.322 16.8892Z" fill="#FF4081"/>
<path d="M8.1356 16.8892C7.38679 16.8892 6.77966 17.4963 6.77966 18.2451C6.77966 18.9939 7.38679 19.601 8.1356 19.601H13.5593C14.3081 19.601 14.9153 18.9939 14.9153 18.2451C14.9153 17.4963 14.3081 16.8892 13.5593 16.8892H8.1356Z" fill="#FF4081"/>
<path d="M18.9831 16.8892C18.2343 16.8892 17.6271 17.4963 17.6271 18.2451C17.6271 18.9939 18.2343 19.601 18.9831 19.601H21.6949C22.4437 19.601 23.0509 18.9939 23.0509 18.2451C23.0509 17.4963 22.4437 16.8892 21.6949 16.8892H18.9831Z" fill="#FF4081"/>
<path d="M19.661 46.7197C17.0399 46.7197 14.9153 44.5951 14.9153 41.9739C14.9153 41.2251 14.3081 40.618 13.5593 40.618C12.8105 40.618 12.2034 41.2251 12.2034 41.9739C12.2034 46.0927 15.5423 49.4315 19.661 49.4315C23.7798 49.4315 27.1187 46.0927 27.1187 41.9739C27.1187 37.8551 23.7798 34.5163 19.661 34.5163C18.9122 34.5163 18.3051 35.1234 18.3051 35.8722C18.3051 36.621 18.9122 37.2281 19.661 37.2281C22.2822 37.2281 24.4068 39.3527 24.4068 41.9739C24.4068 44.5951 22.2822 46.7197 19.661 46.7197Z" fill="#FF4081"/>
</svg>