<svg width="80" height="81" viewBox="0 0 80 81" id="onlineCourses" fill="none" xmlns="http://www.w3.org/2000/svg">
<path d="M39.322 60.279H8.13559C5.14036 60.279 2.71186 57.8505 2.71186 54.8553V24.2925C4.19889 25.6358 6.13149 26.38 8.13559 26.3807H39.322C40.0708 26.3807 40.678 25.7736 40.678 25.0248C40.678 24.2759 40.0708 23.6688 39.322 23.6688H8.13559C5.14036 23.6688 2.71186 21.2403 2.71186 18.2451C2.71186 15.2499 5.14036 12.8214 8.13559 12.8214H39.322C40.0708 12.8214 40.678 12.2142 40.678 11.4654C40.678 10.7166 40.0708 10.1095 39.322 10.1095H8.13559C3.64407 10.1141 0.00463454 13.7536 0 18.2451V54.8553C0.00463454 59.3468 3.64407 62.9862 8.13559 62.9909H39.322C40.0708 62.9909 40.678 62.3837 40.678 61.6349C40.678 60.8861 40.0708 60.279 39.322 60.279Z" fill="white"/>
<path d="M40.678 45.3637V38.5841C40.678 37.8353 40.0708 37.2281 39.322 37.2281C38.5732 37.2281 37.9661 37.8353 37.9661 38.5841V45.3637C37.9661 46.1125 38.5732 46.7197 39.322 46.7197C40.0708 46.7197 40.678 46.1125 40.678 45.3637Z" fill="white"/>
<path d="M65.0847 31.8044C72.6688 31.7938 79.0406 26.0993 79.8994 18.5635V18.5529C80.6799 11.6501 76.587 5.12472 70.0331 2.82202C63.4792 0.519316 56.2043 3.05176 52.496 8.9257C52.496 8.9257 52.4841 8.93497 52.4788 8.94357C52.4735 8.95152 52.4722 8.96807 52.4636 8.97866C49.5696 13.5695 49.4028 19.3719 52.0293 24.121C54.6551 28.8707 59.6577 31.8143 65.0847 31.8044ZM52.8813 16.8892C52.8833 15.0711 53.2951 13.2762 54.0857 11.6389L56.9491 13.547V16.8892C56.9491 17.5115 57.3729 18.0537 57.9767 18.2047L62.1451 19.2475L61.0792 24.5812L59.5048 27.7366C55.4396 25.6464 52.8833 21.4601 52.8813 16.8892ZM77.2881 16.8892C77.2881 17.109 77.2663 17.3241 77.2557 17.5413L72.4801 20.7252L73.1932 17.1606C73.2409 16.9289 73.2256 16.6899 73.1502 16.4661L71.7942 12.3983C71.6684 12.0196 71.3817 11.7157 71.0116 11.5674L65.6012 9.40438L67.7966 5.00025C73.3428 6.26945 77.2789 11.1993 77.2881 16.8892ZM64.9205 4.69371L62.5152 9.50369C62.3457 9.84267 62.3259 10.2379 62.4609 10.5921C62.596 10.947 62.8734 11.2284 63.2256 11.3694L69.424 13.8462L70.4681 16.9759L69.1797 23.3974C69.0724 23.935 69.2995 24.4845 69.755 24.7897C70.2105 25.0949 70.8044 25.0956 71.2612 24.7917L76.4327 21.3436C74.2048 27.0891 68.0217 30.2499 62.0597 28.6913L63.5931 25.6305C63.6474 25.5233 63.6858 25.4088 63.7083 25.2902L65.0642 18.5106C65.2059 17.8015 64.7656 17.1057 64.0638 16.9295L59.661 15.8305V12.8214C59.661 12.3678 59.4346 11.9448 59.0579 11.6932L55.5184 9.33552C57.792 6.44953 61.2473 4.74402 64.9205 4.69371Z" fill="white"/>
<path d="M75.9322 53.4993H54.2373C51.9909 53.4993 50.1695 55.3207 50.1695 57.5671V69.7705C50.1695 72.0169 51.9909 73.8383 54.2373 73.8383H58.8228L57.4669 76.5502H55.5932C54.8444 76.5502 54.2373 77.1573 54.2373 77.9061C54.2373 78.6549 54.8444 79.262 55.5932 79.262H74.5763C75.3251 79.262 75.9322 78.6549 75.9322 77.9061C75.9322 77.1573 75.3251 76.5502 74.5763 76.5502H72.7026L71.3467 73.8383H75.9322C78.1786 73.8383 80 72.0169 80 69.7705V57.5671C80 55.3207 78.1786 53.4993 75.9322 53.4993ZM54.2373 56.2112H57.7436L55.3125 58.6423C54.9603 58.9826 54.8186 59.4871 54.9431 59.9612C55.0669 60.4352 55.437 60.8053 55.911 60.9291C56.3851 61.0536 56.8896 60.9119 57.2299 60.5597L61.5784 56.2112H75.9322C76.681 56.2112 77.2881 56.8183 77.2881 57.5671V65.7027H71.0699L74.179 62.5936C74.6928 62.0613 74.6855 61.2158 74.1625 60.6928C73.6394 60.1697 72.794 60.1625 72.2617 60.6762L67.2352 65.7027H52.8814V57.5671C52.8814 56.8183 53.4885 56.2112 54.2373 56.2112ZM69.6703 76.5502H60.4992L61.8551 73.8383H68.3144L69.6703 76.5502ZM77.2881 69.7705C77.2881 70.5193 76.681 71.1264 75.9322 71.1264H54.2373C53.4885 71.1264 52.8814 70.5193 52.8814 69.7705V68.4146H77.2881V69.7705Z" fill="white"/>
<path d="M46.7797 56.3959L30.5085 46.9044C29.8669 46.5819 29.0857 46.8157 28.7262 47.4367C28.3666 48.0577 28.554 48.8515 29.1525 49.2475L45.4237 58.739C46.0653 59.0608 46.8465 58.827 47.206 58.206C47.5655 57.585 47.3782 56.7912 46.7797 56.3959Z" fill="white"/>
<path d="M50.0596 27.2023C49.7643 26.5144 48.9678 26.1953 48.2793 26.4906L29.2962 34.6262C28.705 34.8798 28.3733 35.5147 28.5024 36.145C28.6321 36.7753 29.187 37.2281 29.8305 37.2281C30.0146 37.2288 30.196 37.1917 30.3648 37.1182L49.3478 28.9826C50.0357 28.6873 50.3549 27.8909 50.0596 27.2023Z" fill="white"/>
<path d="M64.7146 35.761L64.1029 49.3706C64.0863 49.7301 64.2134 50.081 64.4564 50.3472C64.6987 50.6127 65.0371 50.7716 65.3966 50.7874H65.4588C66.1844 50.7881 66.7823 50.2174 66.8147 49.4924L67.4265 35.8828C67.4603 35.134 66.8803 34.4997 66.1315 34.466C65.3827 34.4322 64.7484 35.0122 64.7146 35.761Z" fill="white"/>
</svg>
